<svg width="57" height="61" viewBox="0 0 57 61" fill="none" xmlns="http://www.w3.org/2000/svg">
<path d="M56.9522 53.8458C56.9659 45.937 56.9659 37.5086 56.9522 27.3161C56.9522 24.5993 55.2155 22.1423 52.6355 21.2079C52.4531 21.144 52.2708 21.0893 52.0748 21.0301L51.546 20.8705L51.6782 20.5287C51.7101 20.4512 51.7375 20.3782 51.7648 20.3053L52.7996 17.821C53.5244 16.0843 54.2446 14.3475 54.9648 12.6108C55.8218 10.5367 54.942 8.39884 52.8634 7.53731C47.1153 5.13961 41.3672 2.74647 35.6145 0.357884C33.5313 -0.508206 31.3889 0.376117 30.5183 2.46385C28.8864 6.38405 27.2499 10.3088 25.618 14.229L22.8876 20.8022H19.6466L19.7423 20.4329C19.756 20.3782 19.7696 20.3235 19.7833 20.278L20.4853 18.0899C21.9577 13.4997 23.43 8.90938 24.9069 4.31911C25.1348 3.60344 25.7046 3.30259 26.4659 3.48492C27.1998 3.6627 27.8881 3.27524 28.0704 2.59148C28.2573 1.87582 27.879 1.22397 27.1405 1.00517C25.1257 0.398909 23.1018 1.50203 22.4363 3.57609C21.0961 7.74244 19.7605 11.9042 18.4249 16.0797L16.907 20.8113H14.2221L16.8021 7.23646C16.9435 6.49345 17.4221 6.13334 18.1924 6.19259C18.2927 6.20171 18.3611 6.20627 18.4295 6.20627C19.0768 6.21083 19.6511 5.73676 19.7286 5.09859C19.8107 4.40571 19.3959 3.81768 18.7121 3.66726C16.8204 3.25245 14.8238 4.51056 14.3452 6.40684C14.2358 6.84444 14.1537 7.30028 14.0717 7.74244C14.0352 7.93389 14.0033 8.12534 13.9668 8.31679L13.4882 10.8148H11.3458C10.8261 10.8148 10.3065 10.8148 9.78681 10.8148C8.66546 10.8148 7.5441 10.8148 6.41818 10.8148H6.34069C6.06263 10.8148 5.77089 10.8148 5.49739 10.8512C2.32021 11.2341 0.00455837 13.8552 0 17.0689V21.0483V30.3292C0 38.1148 0 45.9005 0 53.6862C0 55.0856 0.328202 56.2708 1.01196 57.3101C2.34756 59.3477 4.27119 60.3779 6.72815 60.3779C17.5087 60.3779 28.2938 60.3779 39.0743 60.3779H50.2287C50.3426 60.3779 50.4566 60.3779 50.5705 60.3733C54.1443 60.2594 56.9477 57.3922 56.9522 53.8458ZM47.325 8.30312L47.3933 8.05241L50.5751 9.36978C51.0309 9.56123 51.4868 9.74812 51.9426 9.94413C52.5853 10.2222 52.8862 10.8467 52.6491 11.4393C52.2799 12.3737 51.8925 13.2991 51.505 14.2336L50.9398 15.5965L50.721 15.4871C47.8218 14.0102 46.7005 10.6097 47.3295 8.30312H47.325ZM32.6014 4.17324C32.7154 3.88606 32.8339 3.60344 32.9616 3.32082C33.2305 2.71912 33.8732 2.4365 34.4567 2.67353C35.5142 3.10202 36.5672 3.53962 37.6293 3.98634L39.1336 4.6154L38.9832 4.84332C37.6749 6.85356 35.4276 7.78802 33.4128 7.78802C32.7291 7.78802 32.0727 7.67862 31.4846 7.4735L31.2567 7.39144L32.5923 4.1778L32.6014 4.17324ZM30.2584 9.80282L30.459 9.8712C32.565 10.5732 34.6618 10.5458 36.6903 9.78915C38.7051 9.03701 40.3096 7.6923 41.4584 5.79146L41.5586 5.6228L44.9501 7.03589L44.8999 7.22734C44.3484 9.37433 44.5216 11.4666 45.415 13.4404C46.2948 15.3868 47.7535 16.8911 49.7455 17.9076L49.9324 18.0033L48.77 20.8204H48.6195C48.2913 20.8204 47.9631 20.8204 47.6304 20.8204C46.819 20.8158 45.9803 20.8113 45.1597 20.8386C45.137 20.8386 45.1096 20.8386 45.0868 20.8386C44.5854 20.8386 44.3119 20.6563 44.0657 20.1685C42.3837 16.809 39.6988 15.1498 36.0704 15.209C32.4829 15.2774 29.8573 17.0324 28.271 20.4375C28.1342 20.7247 27.9519 20.8386 27.6465 20.8341C27.2773 20.825 26.9035 20.825 26.516 20.8295H25.6773L30.2584 9.82105V9.80282ZM41.5632 20.7976H30.9012L31.1701 20.4329C32.492 18.6369 34.2242 17.7298 36.3028 17.7572C38.3359 17.7754 40.0179 18.678 41.3034 20.4375L41.5678 20.7976H41.5632ZM3.45068 14.6438C4.11165 13.878 5.02788 13.4267 5.96234 13.3994C7.14296 13.3675 8.34181 13.372 9.49964 13.3766C10.0056 13.3766 10.5162 13.3766 11.0221 13.3766H12.1982H13.0005L11.601 20.7839L11.3367 20.7976C11.2637 20.7976 11.1862 20.8067 11.1133 20.8067H10.311C9.68653 20.8067 9.06203 20.8067 8.43298 20.8067C7.80393 20.8067 7.22501 20.8067 6.62331 20.8067C4.50367 20.8067 2.84898 19.3344 2.59827 17.233C2.48887 16.335 2.79884 15.3914 3.44613 14.6392L3.45068 14.6438ZM54.3768 32.5172V34.2448C54.3768 34.2949 54.3676 34.3405 54.3631 34.3998L54.3357 34.687H51.3637C49.5449 34.687 47.7261 34.687 45.9073 34.687C44.5672 34.687 43.537 35.5166 43.2771 36.7929C43.2407 36.9844 43.2361 37.1941 43.2361 37.4083C43.2361 39.9564 43.2361 42.5091 43.2361 45.0572C43.2361 46.6846 44.3392 47.7786 45.9757 47.7786C47.8036 47.7786 49.6361 47.7786 51.464 47.7786H54.3768V53.6953C54.3768 56.0703 52.6537 57.7933 50.2834 57.7933C43.2589 57.7933 36.2299 57.7933 29.2055 57.7933C21.6933 57.7933 14.1765 57.7933 6.66433 57.7933C4.29854 57.7933 2.58459 56.0794 2.58459 53.7136V22.1423L3.00852 22.3702C3.05866 22.3976 3.09969 22.4158 3.13616 22.4386C4.20281 23.0859 5.37431 23.4004 6.71448 23.4004C18.8124 23.3959 30.9148 23.4004 43.0128 23.4004H50.2742C52.0292 23.4004 53.4469 24.3121 54.0577 25.8346C54.1944 26.1765 54.3585 26.7007 54.3676 27.2614C54.3904 29.0163 54.3859 30.7987 54.3813 32.5263L54.3768 32.5172ZM54.3631 37.2943V45.1803H45.8253V37.2943H54.3631Z" fill="#1D6BDD"/>
<path d="M49.9236 39.5553C48.9937 39.5553 48.2416 40.3165 48.2461 41.2419C48.2461 41.6886 48.4239 42.108 48.7475 42.4271C49.0712 42.7461 49.4723 42.9148 49.9327 42.9194C50.8626 42.9194 51.6148 42.1581 51.6102 41.2328C51.6102 40.786 51.4324 40.3621 51.1133 40.0476C50.7942 39.7285 50.3658 39.5462 49.9282 39.5553H49.9236Z" fill="#1D6BDD"/>
</svg>
