<svg width="62" height="60" viewBox="0 0 62 60" fill="none" xmlns="http://www.w3.org/2000/svg">
<path d="M45.9648 29.4816C46.7869 28.6001 47.5862 27.7004 48.4312 26.8417C50.2398 25.0011 52.0713 23.1834 53.8936 21.361C54.9075 20.3471 56.1315 19.7442 57.5748 19.8584C60.0091 20.0457 61.4889 22.238 60.9089 24.6906C60.6851 25.6314 60.2284 26.4261 59.5387 27.1158C55.0765 31.5643 50.6234 36.0265 46.1521 40.4704C45.7913 40.8267 45.6269 41.1875 45.6314 41.7036C45.6543 46.3668 45.6497 51.0345 45.6451 55.6976C45.6451 58.4791 44.0877 60 41.288 60C28.9701 60 16.6476 60 4.32976 60C1.5757 60 0 58.4197 0 55.6474C0 40.5755 0 25.5035 0.018269 10.4316C0.018269 10.1393 0.164421 9.76935 0.369947 9.56383C3.3478 6.54944 6.36218 3.56702 9.3446 0.557205C9.73738 0.159854 10.1347 0 10.6965 0C20.9728 0.018269 31.2537 0.0137018 41.53 0.018269C43.9644 0.018269 45.6269 1.60311 45.6314 4.02375C45.6543 10.3037 45.6406 16.5837 45.6406 22.8637C45.6406 24.8139 45.6406 26.7641 45.6406 28.7189C45.6406 28.9107 45.6771 29.1071 45.6954 29.2989C45.7821 29.3583 45.8689 29.4222 45.9603 29.4816H45.9648ZM30.0297 50.8838C30.1119 47.4218 30.8564 44.3435 33.3455 41.8817C36.4238 38.8354 39.4702 35.757 42.5531 32.7198C42.9916 32.2905 43.1514 31.8566 43.1468 31.2491C43.124 22.2745 43.124 13.3044 43.124 4.32976C43.124 2.96871 42.6901 2.52569 41.3154 2.53026C39.5889 2.53026 37.858 2.53483 36.1315 2.53939C27.9379 2.53939 19.7442 2.53939 11.5552 2.55766C11.2354 2.55766 10.8335 2.69011 10.6143 2.90934C8.0886 5.39393 5.59488 7.91505 3.06919 10.3996C2.66271 10.797 2.51656 11.1989 2.51656 11.7561C2.52569 26.3622 2.52112 40.9637 2.51656 55.5698C2.51656 57.0496 2.96415 57.4971 4.43937 57.4971C16.7847 57.4971 29.1299 57.4971 41.4752 57.4971C42.6216 57.4971 43.124 57.0084 43.1286 55.8758C43.1331 52.0621 43.1331 48.2485 43.1331 44.4348C43.1331 44.2019 43.1103 43.9735 43.0875 43.5944C42.7952 43.8685 42.6125 44.0238 42.4435 44.1927C41.2058 45.4259 39.9909 46.691 38.7212 47.8968C36.3097 50.1804 33.3318 50.8564 30.0251 50.8929L30.0297 50.8838ZM51.3679 27.4949C51.2217 27.6182 51.1304 27.6821 51.0528 27.7598C45.5949 33.2131 40.1233 38.6527 34.6883 44.1242C33.6424 45.1747 33.1537 46.5449 32.8522 48.0475C33.076 48.0338 33.2085 48.0475 33.3318 48.011C34.8162 47.5862 36.1589 46.9422 37.2779 45.8187C42.4343 40.6348 47.6182 35.4784 52.7929 30.3129C53.0212 30.0845 53.2359 29.8333 53.4003 29.6506C52.7015 28.9061 52.0576 28.2256 51.3725 27.4994L51.3679 27.4949ZM55.2912 27.6913C56.2229 26.7869 57.1866 25.9146 58.0635 24.9646C58.6801 24.2978 58.6618 23.1971 58.1503 22.681C57.6753 22.206 56.7801 22.1694 56.1315 22.7723C55.1359 23.6949 54.2361 24.7225 53.3227 25.6725C53.9438 26.3074 54.6106 26.9879 55.2866 27.6867L55.2912 27.6913Z" fill="#1D6BDD"/>
<path d="M9.19141 22.1192V19.6803C9.46544 19.662 9.70751 19.6346 9.945 19.6346C18.1295 19.6346 26.314 19.6438 34.4986 19.6255C35.1197 19.6255 35.2887 19.8356 35.2293 20.4019C35.1928 20.7353 35.1791 21.0779 35.2202 21.4067C35.2978 22.0324 35.001 22.1512 34.4437 22.1512C28.1683 22.1283 21.8884 22.1238 15.613 22.1192C13.7084 22.1192 11.7993 22.1192 9.89476 22.1238C9.67553 22.1238 9.45631 22.1238 9.19141 22.1238V22.1192Z" fill="#1D6BDD"/>
<path d="M9.15668 27.3533C9.15668 26.5814 9.17038 25.9374 9.15668 25.2935C9.14297 24.8322 9.46268 24.8641 9.75042 24.8641C11.3444 24.855 12.9338 24.855 14.5278 24.8596C21.1914 24.8596 27.8504 24.8733 34.5141 24.8596C35.0758 24.8596 35.2403 25.0194 35.2357 25.5766C35.2174 27.3533 35.2357 27.3533 33.491 27.3533C25.818 27.3533 18.145 27.3533 10.4766 27.3579C10.0747 27.3579 9.67278 27.3579 9.16124 27.3579L9.15668 27.3533Z" fill="#1D6BDD"/>
<path d="M35.2191 32.5143C34.9587 32.5326 34.8034 32.5508 34.6482 32.5508C28.5691 32.5508 22.4947 32.5463 16.4157 32.56C15.8722 32.56 15.6758 32.4275 15.6758 31.8566C15.6849 30.0525 15.6621 30.0525 17.4844 30.0525C22.9788 30.0525 28.4732 30.0525 33.9676 30.0525C35.4748 30.0525 35.178 29.9977 35.2145 31.2537C35.2236 31.6511 35.2145 32.053 35.2145 32.5189L35.2191 32.5143Z" fill="#1D6BDD"/>
<path d="M10.4977 5.27518H12.9229C12.9503 5.45787 12.9914 5.60859 12.9914 5.75931C12.9914 7.97899 12.9914 10.1987 12.9914 12.4184C12.9914 12.7289 12.9914 12.9984 12.553 12.9984C10.1963 12.9847 7.84414 12.9893 5.48744 12.9801C5.42806 12.9801 5.36412 12.9345 5.27734 12.8979V10.5001C6.58815 10.5001 7.86241 10.5092 9.13211 10.5001C10.7352 10.4864 10.4794 10.6737 10.4977 9.15278C10.5114 7.88308 10.4977 6.60881 10.4977 5.27518Z" fill="#1D6BDD"/>
<path d="M18.2373 49.6643C18.2373 50.427 18.2693 51.0756 18.2145 51.715C18.2008 51.8794 17.9085 52.1443 17.7395 52.1443C15.4787 52.1763 13.2179 52.1672 10.9571 52.1763C10.6237 52.1763 10.4913 52.0667 10.4684 51.715C10.3177 49.6552 10.3086 49.6552 12.3821 49.6597C14.0629 49.6597 15.7391 49.6597 17.4198 49.6597C17.6619 49.6597 17.9039 49.6597 18.2419 49.6597L18.2373 49.6643Z" fill="#1D6BDD"/>
<path d="M22.1537 49.6643C22.1537 50.4316 22.1811 51.0801 22.1355 51.7241C22.1218 51.8794 21.8751 52.0256 21.7199 52.1626C21.6833 52.1946 21.5874 52.1672 21.5235 52.1672C19.4454 52.2037 19.4134 52.1763 19.6326 50.1073C19.6509 49.9475 19.8518 49.6917 19.9843 49.6871C20.6739 49.646 21.3682 49.6689 22.1583 49.6689L22.1537 49.6643Z" fill="#1D6BDD"/>
</svg>
