<svg width="60" height="60" viewBox="0 0 60 60" fill="none" xmlns="http://www.w3.org/2000/svg">
<path d="M42.4991 12.0009C42.2246 12.0009 41.9995 12.2259 41.9995 12.5004V17.4996C41.9995 17.7741 42.2246 17.9991 42.4991 17.9991H47.4987C47.7732 17.9991 47.9982 17.7741 47.9982 17.4996V12.5004C47.9982 12.2259 47.7732 12.0009 47.4987 12.0009H42.4991ZM41.9995 47.9991V46.5007C41.9995 45.6727 42.6701 45.0023 43.4981 45.0023C44.3261 45.0023 44.9966 45.6727 44.9966 46.5007V47.9991H47.9982V46.5007C47.9982 45.6727 48.6687 45.0023 49.4967 45.0023C50.3248 45.0023 50.9953 45.6727 50.9953 46.5007V49.502C50.9953 50.33 50.3248 51.0005 49.4967 51.0005H37.4949C36.6669 51.0005 35.9964 50.33 35.9964 49.502V46.5007C35.9964 45.6727 36.6669 45.0023 37.4949 45.0023C38.323 45.0023 38.9935 45.6727 38.9935 46.5007V47.9991H41.995H41.9995ZM32.9993 26.9987H34.4979C35.3259 26.9987 35.9964 27.6691 35.9964 28.4971C35.9964 29.325 35.3259 29.9955 34.4979 29.9955H28.4992C27.6712 29.9955 27.0007 29.325 27.0007 28.4971C27.0007 27.6691 27.6712 26.9987 28.4992 26.9987H29.9978V23.9973H25.4976C24.6696 23.9973 23.9991 23.3268 23.9991 22.4989C23.9991 21.6709 24.6696 21.0005 25.4976 21.0005H34.4979C35.3259 21.0005 35.9964 21.6709 35.9964 22.4989C35.9964 23.3268 35.3259 23.9973 34.4979 23.9973H32.9993V26.9987ZM47.9982 30H46.4997C45.6716 30 45.0011 29.3295 45.0011 28.5016C45.0011 27.6736 45.6716 27.0032 46.4997 27.0032H47.9982V25.5047C47.9982 24.6768 48.6687 24.0063 49.4967 24.0063C50.3248 24.0063 50.9953 24.6768 50.9953 25.5047V31.5029C50.9953 32.3309 50.3248 33.0014 49.4967 33.0014C48.6687 33.0014 47.9982 32.3309 47.9982 31.5029V30.0045V30ZM32.9993 35.9982H31.5008C30.6728 35.9982 30.0022 35.3277 30.0022 34.4998C30.0022 33.6718 30.6728 33.0014 31.5008 33.0014H34.5024C35.3304 33.0014 36.0009 33.6718 36.0009 34.4998V40.498C36.0009 41.3259 35.3304 41.9964 34.5024 41.9964H25.5021C24.6741 41.9964 24.0036 41.3259 24.0036 40.498C24.0036 39.67 24.6741 38.9995 25.5021 38.9995H33.0038V35.9982H32.9993ZM42.4991 8.99955H47.4987C49.4337 8.99955 50.9998 10.5655 50.9998 12.5004V17.4996C50.9998 19.4345 49.4337 21.0005 47.4987 21.0005H42.4991C40.564 21.0005 38.998 19.4345 38.998 17.4996V12.5004C38.998 10.5655 40.564 8.99955 42.4991 8.99955ZM12.4968 8.99955H17.4964C19.4315 8.99955 20.9975 10.5655 20.9975 12.5004V17.4996C20.9975 19.4345 19.4315 21.0005 17.4964 21.0005H12.4968C10.5618 21.0005 8.99572 19.4345 8.99572 17.4996V12.5004C8.99572 10.5655 10.5618 8.99955 12.4968 8.99955ZM12.4968 12.0009C12.2223 12.0009 11.9973 12.2259 11.9973 12.5004V17.4996C11.9973 17.7741 12.2223 17.9991 12.4968 17.9991H17.4964C17.7709 17.9991 17.996 17.7741 17.996 17.4996V12.5004C17.996 12.2259 17.7709 12.0009 17.4964 12.0009H12.4968ZM12.4968 38.9995H17.4964C19.4315 38.9995 20.9975 40.5655 20.9975 42.5004V47.4996C20.9975 49.4345 19.4315 51.0005 17.4964 51.0005H12.4968C10.5618 51.0005 8.99572 49.4345 8.99572 47.4996V42.5004C8.99572 40.5655 10.5618 38.9995 12.4968 38.9995ZM12.4968 42.0009C12.2223 42.0009 11.9973 42.2259 11.9973 42.5004V47.4996C11.9973 47.7741 12.2223 47.9991 12.4968 47.9991H17.4964C17.7709 47.9991 17.996 47.7741 17.996 47.4996V42.5004C17.996 42.2259 17.7709 42.0009 17.4964 42.0009H12.4968ZM32.9993 12.0009H25.4976C24.6696 12.0009 23.9991 11.3304 23.9991 10.5025C23.9991 9.67452 24.6696 9.00405 25.4976 9.00405H34.4979C35.3259 9.00405 35.9964 9.67452 35.9964 10.5025V16.5007C35.9964 17.3286 35.3259 17.9991 34.4979 17.9991C33.6698 17.9991 32.9993 17.3286 32.9993 16.5007V12.0009ZM25.4976 17.9991C24.6696 17.9991 23.9991 17.3286 23.9991 16.5007C23.9991 15.6727 24.6696 15.0023 25.4976 15.0023H28.4992C29.3272 15.0023 29.9978 15.6727 29.9978 16.5007C29.9978 17.3286 29.3272 17.9991 28.4992 17.9991H25.4976ZM10.4988 35.9982C9.67074 35.9982 9.00023 35.3277 9.00023 34.4998C9.00023 33.6718 9.67074 33.0014 10.4988 33.0014H16.4974C17.3254 33.0014 17.996 33.6718 17.996 34.4998C17.996 35.3277 17.3254 35.9982 16.4974 35.9982H10.4988ZM22.5006 35.9982C21.6725 35.9982 21.002 35.3277 21.002 34.4998C21.002 33.6718 21.6725 33.0014 22.5006 33.0014H25.5021C26.3302 33.0014 27.0007 33.6718 27.0007 34.4998C27.0007 35.3277 26.3302 35.9982 25.5021 35.9982H22.5006ZM27.0007 47.9991V49.4975C27.0007 50.3255 26.3302 50.996 25.5021 50.996C24.6741 50.996 24.0036 50.3255 24.0036 49.4975V46.4962C24.0036 45.6682 24.6741 44.9978 25.5021 44.9978H31.5008C32.3288 44.9978 32.9993 45.6682 32.9993 46.4962C32.9993 47.3241 32.3288 47.9946 31.5008 47.9946H27.0007V47.9991ZM21.002 26.9987H22.5006C23.3286 26.9987 23.9991 27.6691 23.9991 28.4971C23.9991 29.325 23.3286 29.9955 22.5006 29.9955H19.499C18.671 29.9955 18.0005 29.325 18.0005 28.4971V26.9987H16.5019C15.6739 26.9987 15.0034 26.3282 15.0034 25.5002C15.0034 24.6723 15.6739 24.0018 16.5019 24.0018H19.5035C20.3315 24.0018 21.002 24.6723 21.002 25.5002V26.9987ZM9.00023 25.5002C9.00023 24.6723 9.67074 24.0018 10.4988 24.0018C11.3268 24.0018 11.9973 24.6723 11.9973 25.5002V28.5016C11.9973 29.3295 11.3268 30 10.4988 30C9.67074 30 9.00023 29.3295 9.00023 28.5016V25.5002ZM39.0025 25.5002C39.0025 24.6723 39.673 24.0018 40.501 24.0018C41.329 24.0018 41.9995 24.6723 41.9995 25.5002V31.4984C41.9995 32.3264 41.329 32.9969 40.501 32.9969C39.673 32.9969 39.0025 32.3264 39.0025 31.4984V25.5002ZM45.0011 38.9995V37.5011C45.0011 36.6732 45.6716 36.0027 46.4997 36.0027H49.5012C50.3293 36.0027 50.9998 36.6732 50.9998 37.5011C50.9998 38.3291 50.3293 38.9995 49.5012 38.9995H48.0027V40.498C48.0027 41.3259 47.3322 41.9964 46.5042 41.9964H40.5055C39.6775 41.9964 39.007 41.3259 39.007 40.498V37.4966C39.007 36.6687 39.6775 35.9982 40.5055 35.9982C41.3335 35.9982 42.004 36.6687 42.004 37.4966V38.9951H45.0056L45.0011 38.9995ZM3.00157 13.4993C3.00157 14.3273 2.33106 14.9978 1.50304 14.9978C0.675017 14.9978 0.00450011 14.3273 0.00450011 13.4993V7.50113C0 3.35683 3.35708 0 7.50169 0H13.5003C14.3284 0 14.9989 0.670466 14.9989 1.49843C14.9989 2.32638 14.3284 2.99685 13.5003 2.99685H7.50169C5.01763 2.99685 3.00157 5.01275 3.00157 7.49663V13.4948V13.4993ZM46.4997 3.00135C45.6716 3.00135 45.0011 2.33088 45.0011 1.50292C45.0011 0.674966 45.6716 0.00449977 46.4997 0.00449977H52.4983C56.6384 0.00449977 60 3.36133 60 7.50563V13.5038C60 14.3318 59.3295 15.0023 58.5015 15.0023C57.6734 15.0023 57.0029 14.3318 57.0029 13.5038V7.50563C57.0029 5.02175 54.9869 3.00585 52.5028 3.00585H46.5042L46.4997 3.00135ZM13.5003 56.9986C14.3284 56.9986 14.9989 57.6691 14.9989 58.4971C14.9989 59.325 14.3284 59.9955 13.5003 59.9955H7.50169C3.36158 59.9955 0 56.6387 0 52.4944V46.4962C0 45.6682 0.670517 44.9978 1.49854 44.9978C2.32656 44.9978 2.99707 45.6682 2.99707 46.4962V52.4944C2.99707 54.9783 5.01313 56.9942 7.49719 56.9942H13.4958L13.5003 56.9986ZM57.0029 46.5007C57.0029 45.6727 57.6734 45.0023 58.5015 45.0023C59.3295 45.0023 60 45.6727 60 46.5007V52.4989C60 56.6387 56.6429 60 52.4983 60H46.4997C45.6716 60 45.0011 59.3295 45.0011 58.5016C45.0011 57.6736 45.6716 57.0032 46.4997 57.0032H52.4983C54.9824 57.0032 56.9984 54.9873 56.9984 52.5034V46.5052L57.0029 46.5007Z" fill="#1D6BDD"/>
</svg>
